<?xml version="1.0" encoding="utf-8"?>
<!-- Generator: Adobe Illustrator 22.0.1, SVG Export Plug-In . SVG Version: 6.00 Build 0)  -->
<svg version="1.1" xmlns="http://www.w3.org/2000/svg" xmlns:xlink="http://www.w3.org/1999/xlink" x="0px" y="0px" viewBox="0 0 1024 498.1" xml:space="preserve" class="navLogo">
    <g class="hash Layer_1">
        <polygon points="342,4 288.8,168.5 122.3,168.5 175.5,4"/>
        <polygon points="235.7,332.9 182.5,497.4 16,497.4 69.2,332.9"/>
    </g>
    <g class="hash Layer_2">
        <polygon points="455.3,168.5 402.2,332.9 235.7,332.9 288.8,168.5"/>
    </g>
    <g class="hash Layer_3">
        <polygon points="675,4 621.8,168.5 455.3,168.5 508.5,4"/>
        <polygon points="568.7,332.9 515.5,497.4 349,497.4 402.2,332.9"/>
    </g>
    <g class="hash Layer_4">
        <polygon points="788.3,168.5 735.2,332.9 568.7,332.9 621.8,168.5"/>
    
    </g>
    <g class="hash Layer_5">
        <polygon points="1008,4 954.8,168.5 788.3,168.5 841.5,4"/>
        <polygon points="901.7,332.9 848.5,497.4 682,497.4 735.2,332.9"/>
    </g>
</svg>
